<svg width="60" height="60" viewBox="0 0 60 60" fill="none" xmlns="http://www.w3.org/2000/svg">
<path d="M30.0127 14.7266C21.5659 14.7266 14.7526 21.5399 14.7526 29.9868C14.7526 38.4336 21.5659 45.2469 30.0127 45.2469C38.4596 45.2469 45.2729 38.4336 45.2729 29.9868C45.2729 21.5399 38.4596 14.7266 30.0127 14.7266ZM30.0127 39.9079C24.5542 39.9079 20.0917 35.4586 20.0917 29.9868C20.0917 24.5149 24.5409 20.0657 30.0127 20.0657C35.4846 20.0657 39.9338 24.5149 39.9338 29.9868C39.9338 35.4586 35.4713 39.9079 30.0127 39.9079ZM49.4565 14.1024C49.4565 16.0813 47.8627 17.6618 45.8971 17.6618C43.9182 17.6618 42.3377 16.068 42.3377 14.1024C42.3377 12.1368 43.9315 10.543 45.8971 10.543C47.8627 10.543 49.4565 12.1368 49.4565 14.1024ZM59.5635 17.7149C59.3377 12.9469 58.2487 8.72349 54.7557 5.2438C51.276 1.76411 47.0526 0.675049 42.2846 0.435986C37.3706 0.15708 22.6417 0.15708 17.7276 0.435986C12.9729 0.661768 8.74946 1.75083 5.25649 5.23052C1.76353 8.71021 0.687744 12.9336 0.448682 17.7016C0.169775 22.6157 0.169775 37.3446 0.448682 42.2586C0.674463 47.0266 1.76353 51.25 5.25649 54.7297C8.74946 58.2094 12.9596 59.2985 17.7276 59.5375C22.6417 59.8165 37.3706 59.8165 42.2846 59.5375C47.0526 59.3118 51.276 58.2227 54.7557 54.7297C58.2354 51.25 59.3245 47.0266 59.5635 42.2586C59.8424 37.3446 59.8424 22.629 59.5635 17.7149ZM53.2151 47.5313C52.1791 50.1344 50.1737 52.1399 47.5573 53.1891C43.6393 54.743 34.3424 54.3844 30.0127 54.3844C25.6831 54.3844 16.3729 54.7297 12.4682 53.1891C9.86509 52.1532 7.85962 50.1477 6.8104 47.5313C5.25649 43.6133 5.61509 34.3165 5.61509 29.9868C5.61509 25.6571 5.26978 16.3469 6.8104 12.4422C7.84634 9.83911 9.85181 7.83364 12.4682 6.78442C16.3862 5.23052 25.6831 5.58911 30.0127 5.58911C34.3424 5.58911 43.6526 5.2438 47.5573 6.78442C50.1604 7.82036 52.1659 9.82583 53.2151 12.4422C54.769 16.3602 54.4104 25.6571 54.4104 29.9868C54.4104 34.3165 54.769 43.6266 53.2151 47.5313Z" fill="#EFEFEF"/>
</svg>
