<svg width="60" height="60" viewBox="0 0 60 60" fill="none" xmlns="http://www.w3.org/2000/svg">
<path d="M55.5 0.25H4.48672C2.14922 0.25 0.25 2.17578 0.25 4.53984V55.4602C0.25 57.8242 2.14922 59.75 4.48672 59.75H55.5C57.8375 59.75 59.75 57.8242 59.75 55.4602V4.53984C59.75 2.17578 57.8375 0.25 55.5 0.25ZM18.2328 51.25H9.41406V22.8547H18.2461V51.25H18.2328ZM13.8234 18.9766C10.9945 18.9766 8.71016 16.6789 8.71016 13.8633C8.71016 11.0477 10.9945 8.75 13.8234 8.75C16.6391 8.75 18.9367 11.0477 18.9367 13.8633C18.9367 16.6922 16.6523 18.9766 13.8234 18.9766ZM51.2898 51.25H42.4711V37.4375C42.4711 34.1437 42.4047 29.907 37.8891 29.907C33.2938 29.907 32.5898 33.493 32.5898 37.1984V51.25H23.7711V22.8547H32.2313V26.7328H32.3508C33.5328 24.5016 36.4148 22.1508 40.7047 22.1508C49.6297 22.1508 51.2898 28.0344 51.2898 35.6844V51.25Z" fill="#EFEFEF"/>
</svg>
