<svg xmlns="http://www.w3.org/2000/svg" width="689" height="135" viewBox="0 0 689 135"><title>velzurlogo</title><path d="M123.9,207.6l-23.6,62.1L77.7,207.9a23.44,23.44,0,0,0-22.1-15.4H38.5a1.91,1.91,0,0,0-1.8,2.5L83.5,323.7a2,2,0,0,0,1.8,1.2h29.3a2,2,0,0,0,1.8-1.2L165,195a1.91,1.91,0,0,0-1.8-2.6H145.9A23.71,23.71,0,0,0,123.9,207.6Z" transform="translate(-36.6 -192.3)" fill="#efefef"/><path d="M720.2,192.4c-3.4,0-6.8.2-10.1.5a38.91,38.91,0,0,0-9.9,2.5,38,38,0,0,0-9.5,5.7,36.15,36.15,0,0,0-6.9,7.5v-3A12.85,12.85,0,0,0,671,192.7H650.5V324.8h35.4V249.7a20.16,20.16,0,0,1,11.3-18.2c7.7-3.7,17.6-4.6,27.2-3l1.2.2V192.3l-5.4.1Z" transform="translate(-36.6 -192.3)" fill="#efefef"/><path d="M274,211.5a69.63,69.63,0,0,0-47.3-19.1c-16,0-29.6,4.7-41.5,14.2a67.33,67.33,0,0,0-24.3,36,72.4,72.4,0,0,0-1.9,16,62.36,62.36,0,0,0,8.9,32.2c5.6,9.7,13.8,17.9,24.2,24.5,10.1,6.4,21.8,9.6,34.6,9.6a63.92,63.92,0,0,0,35.7-10.7c10.9-6.8,19.1-16.1,21.3-20.2h0a1.44,1.44,0,0,0-.5-1.8l-26.5-17.1a1.34,1.34,0,0,0-1.9.5h0a44.18,44.18,0,0,1-10.4,11.2,29.89,29.89,0,0,1-17.7,5.7c-8.7,0-15.8-2.4-21.5-7.2a32.73,32.73,0,0,1-2.7-2.4,7.31,7.31,0,0,1,5.1-12.5h85.9l.2-1.1a56.3,56.3,0,0,0,.9-10.5A65.45,65.45,0,0,0,274,211.5Zm-47.4,13.3c12,0,21.2,5.2,27.4,15.5H197.7c1.7-3.6,4.8-7,9.5-10.3C212.5,226.6,218.9,224.8,226.6,224.8Z" transform="translate(-36.6 -192.3)" fill="#efefef"/><path d="M497.8,214.2l.3-.4V194.5a1.9,1.9,0,0,0-1.9-1.9H394.7a1.9,1.9,0,0,0-1.9,1.9v9.9a18.67,18.67,0,0,0,18.6,18.8h39.8c-17.2,23.5-38.3,52.6-58.1,80.3l-.3.4v20.9H498.1V296.1a1.9,1.9,0,0,0-1.9-1.9H439.7c5.8-8,12.3-17,19.1-26.4C470.7,251.4,484.2,232.6,497.8,214.2Z" transform="translate(-36.6 -192.3)" fill="#efefef"/><path d="M602.9,192.4a2,2,0,0,0-2,2v72.3c0,17.5-14.1,28.4-27.2,28.4a24.88,24.88,0,0,1-18.3-8.2c-5.3-5.8-7.8-12.9-7.8-22.6V192.4H530a17.84,17.84,0,0,0-17.8,17.8v63.7c0,15.9,5.6,29.8,15.4,38.1,10.2,8.4,24,12.9,39.9,12.9h2.6c12-.4,23.1-5,30.4-12.6v12.6H636V210.2a17.84,17.84,0,0,0-17.8-17.8Z" transform="translate(-36.6 -192.3)" fill="#efefef"/><path d="M368.1,295.2a13.67,13.67,0,0,1-6.8,1.9c-7.5,0-16-6.4-16.2-15.5,0-.7-.1-45.2-.2-87.2a2,2,0,0,0-2-2H311.2a2,2,0,0,0-2,2v23.5c.1,24.6.1,47.8.1,71.5.7,14.1,9.6,28,21.7,33.8a48.48,48.48,0,0,0,20.3,4.1c6.2,0,18-1.1,26.5-8.6l.7-.6-8.6-22.3C369.8,295.1,368.8,294.8,368.1,295.2Z" transform="translate(-36.6 -192.3)" fill="#efefef"/></svg>